PathFileType	4	(X/Y/Z)	C:/Users/opensim2020/Desktop/walking_exp_matlab/subject01_walking15_straight_03.trc																																																																																																																															
DataRate	CameraRate	NumFrames	NumMarkers	Units	OrigDataRate	OrigDataStartFrame	OrigNumFrames																																																																																																																											
100	100	8	43	mm	100	1618	145																																																																																																																											
Frame#	Time	LFHD			RFHD			LBHD			RBHD			C7			T10			CLAV			STRN			RBAK			LSHO			LUPA			LELB			LFRM			LWRA			LWRB			LFIN			RSHO			RUPA			RELB			RFRM			RWRA			RWRB			RFIN			LASI			RASI			LPSI			RPSI			LTHI			LKNE			LTIB			LANK			LHEE			LTOE			RTHI			RKNE			RTIB			RANK			RHEE			RTOE			*39			*40			*41			*42		
		X1	Y1	Z1	X2	Y2	Z2	X3	Y3	Z3	X4	Y4	Z4	X5	Y5	Z5	X6	Y6	Z6	X7	Y7	Z7	X8	Y8	Z8	X9	Y9	Z9	X10	Y10	Z10	X11	Y11	Z11	X12	Y12	Z12	X13	Y13	Z13	X14	Y14	Z14	X15	Y15	Z15	X16	Y16	Z16	X17	Y17	Z17	X18	Y18	Z18	X19	Y19	Z19	X20	Y20	Z20	X21	Y21	Z21	X22	Y22	Z22	X23	Y23	Z23	X24	Y24	Z24	X25	Y25	Z25	X26	Y26	Z26	X27	Y27	Z27	X28	Y28	Z28	X29	Y29	Z29	X30	Y30	Z30	X31	Y31	Z31	X32	Y32	Z32	X33	Y33	Z33	X34	Y34	Z34	X35	Y35	Z35	X36	Y36	Z36	X37	Y37	Z37	X38	Y38	Z38	X39	Y39	Z39	X40	Y40	Z40	X41	Y41	Z41	X42	Y42	Z42	X43	Y43	Z43
																																																																																																																																		
19	0.18	-566.65051	1633.70544	1424.01465	-534.84528	1643.505	1532.64966	-681.44775	1597.16736	1453.39026	-650.5575	1606.17029	1568.92102	-724.35748	1407.71887	1491.62561	-778.28784	1115.62659	1510.34436	-581.49231	1333.31152	1494.88684	-551.09491	1175.95093	1497.49585	-788.85376	1224.09668	1578.59314	-639.94019	1365.66443	1333.80933	-709.52606	1190.95923	1251.50903	-762.04871	1056.29565	1252.87805	-779.4989	948.89014	1220.0022	-767.06335	807.18872	1226.83093	-817.43488	832.76978	1206.17212	-811.56592	750.54779	1186.72424	-640.79749	1383.36633	1642.67798	-725.85999	1203.35254	1754.54138	-730.55981	1077.77051	1777.52209	-646.07397	989.08868	1810.45264	-514.77472	941.63428	1790.98865	-548.68427	916.87091	1829.59204	-470.06293	883.28674	1835.19812	-602.61542	909.18909	1420.32251	-622.50287	907.7182	1635.99658	-791.92383	914.6073	1447.87561	-804.09021	927.1416	1590.24329	-531.40363	599.66486	1358.03882	-497.27615	470.67844	1378.04761	-505.30606	282.41324	1373.61963	-480.16623	66.4586	1429.48022	-515.98273	34.091	1487.35144	-335.80423	52.36277	1416.15515	-752.07904	592.23132	1702.30737	-790.42584	433.39114	1691.45422	-927.61121	317.84961	1695.75208	-1052.12793	148.6161	1660.58081	-1105.80774	144.75545	1606.11414	-970.7641	30.02982	1669.79871	-547.6496	1676.48083	1510.96887	1973.10254	1023.55835	-3101.90942	2012.53894	1022.05542	-3140.77563	NaN	NaN	NaN
20	0.19	-554.0946	1634.59717	1421.56592	-522.60785	1644.46619	1530.26758	-668.76294	1597.89905	1450.57361	-638.38617	1606.96375	1566.23096	-711.14282	1408.16345	1489.15369	-765.09076	1116.3158	1509.43628	-568.67761	1333.80664	1492.60364	-537.86755	1176.49011	1495.82849	-775.71655	1224.41174	1576.39343	-627.19843	1365.06165	1331.40955	-695.70636	1189.29211	1249.89771	-747.99396	1054.57922	1251.93359	-765.18439	947.00958	1219.44604	-752.04413	805.4458	1226.38599	-802.80273	830.7533	1206.0249	-796.75537	748.44055	1187.01807	-627.98615	1383.84204	1640.66321	-714.02222	1203.90344	1752.18689	-718.92163	1078.25989	1775.34131	-635.0484	988.91821	1808.28125	-504.20483	940.36871	1788.56738	-538.22571	915.89874	1827.29883	-459.83856	881.70197	1832.69336	-589.01227	909.51849	1419.63123	-608.76007	907.38904	1634.95642	-778.1637	915.53326	1447.24414	-789.91547	926.35486	1590.09094	-520.35992	600.21881	1355.62634	-483.38446	472.40253	1377.63831	-494.9028	283.85605	1372.95618	-476.41913	67.16251	1428.9386	-514.73431	35.35199	1486.53247	-332.7099	47.82719	1418.00659	-733.83099	590.36542	1701.70142	-770.58838	431.51831	1692.76501	-911.77393	320.86462	1696.13745	-1041.98022	156.04805	1661.06848	-1094.0459	155.92957	1605.81335	-972.09247	30.2581	1669.6095	-535.49695	1677.48877	1508.57495	1973.04028	1023.85266	-3102.03418	2012.50708	1022.14374	-3140.73071	NaN	NaN	NaN
21	0.2	-541.62415	1635.2301	1419.05481	-510.49704	1645.30505	1527.66309	-656.34363	1598.62402	1447.84363	-626.14563	1607.80688	1563.52271	-697.7818	1408.92883	1486.88892	-752.05334	1117.07727	1508.64648	-555.80151	1334.48511	1490.46362	-524.75305	1177.09265	1494.33545	-762.76019	1225.1615	1574.40942	-614.5094	1364.5614	1329.19666	-681.59375	1188.02087	1248.43372	-733.63672	1053.10144	1251.0282	-750.08997	945.23907	1218.91809	-736.13794	803.87659	1226.47095	-787.01166	828.76343	1205.82385	-780.83142	746.54358	1187.29224	-615.07385	1384.43982	1638.61719	-702.34137	1204.75928	1749.70837	-707.47595	1079.16492	1772.99866	-624.44672	988.81866	1805.85864	-494.25317	938.63422	1786.00476	-528.49463	914.65778	1824.8949	-450.59271	879.49982	1830.17969	-575.5282	910.29333	1418.64783	-595.13696	907.23523	1633.64697	-764.625	916.59167	1446.99023	-776.07367	926.16766	1590.33289	-509.32181	600.89178	1354.06482	-471.16797	474.25574	1377.36108	-485.10074	285.10413	1371.37854	-474.33716	66.97645	1429.099	-513.58044	36.05842	1486.43347	-331.1944	44.48157	1418.13794	-714.83063	588.28986	1701.46802	-749.59222	429.33588	1694.48474	-894.20673	323.51422	1696.5896	-1029.91895	163.42358	1661.36169	-1079.57898	166.72179	1604.901	-971.82281	31.17193	1668.63977	-523.10052	1678.50012	1505.93994	1973.03625	1023.96783	-3101.97485	2012.44177	1022.08588	-3140.82544	NaN	NaN	NaN
22	0.21	-529.29352	1635.61035	1416.4386	-498.21487	1645.98572	1525.16479	-643.89825	1598.83118	1445.1156	-614.02856	1608.40417	1560.81274	-684.65082	1409.51062	1484.7334	-739.09338	1117.54626	1507.82739	-542.93329	1335.07593	1488.51013	-511.71964	1177.59204	1492.96069	-749.8717	1226.05957	1572.72668	-601.78668	1364.24463	1327.1748	-667.44342	1187.02051	1247.01892	-719.00104	1051.70117	1250.1532	-734.36267	943.65967	1218.52039	-719.42749	802.19275	1226.44299	-770.29926	826.84882	1205.68188	-763.4256	744.36371	1187.55371	-602.11768	1385.1814	1636.58899	-690.84674	1205.86536	1747.18372	-696.14703	1080.36914	1770.53455	-614.26373	988.78851	1803.33032	-484.93134	936.53241	1783.42175	-519.45007	913.14282	1822.44043	-442.20306	876.71008	1827.64417	-562.44049	911.42981	1417.34033	-581.62952	907.12958	1632.1781	-751.63849	917.74646	1447.03809	-762.28107	925.75891	1590.53125	-498.61371	601.13123	1352.65259	-460.65131	474.78455	1376.8949	-476.60953	285.33563	1370.19238	-473.23108	67.14391	1429.81348	-512.42682	36.32217	1486.67261	-329.97818	41.8838	1417.41797	-695.38873	586.12286	1701.68701	-727.66937	427.38513	1696.19568	-875.60938	326.18335	1697.19507	-1015.922	170.32976	1661.4281	-1064.35767	176.69753	1604.0675	-967.17694	33.5313	1667.32446	-510.65692	1679.28943	1503.1897	1973.18872	1023.49152	-3101.96265	2012.4751	1022.10504	-3140.80981	NaN	NaN	NaN
23	0.22	-517.09564	1635.80811	1413.75415	-486.25421	1646.61292	1522.47278	-631.84015	1598.94836	1442.41736	-602.0105	1608.84827	1558.14673	-671.66467	1409.81006	1482.65283	-726.30328	1118.03601	1507.08655	-530.18134	1335.47644	1486.56201	-498.85065	1178.03125	1491.7439	-737.07813	1226.87231	1571.22217	-588.94165	1364.03479	1325.38892	-653.4118	1186.23206	1245.71423	-704.02655	1050.42249	1249.28162	-718.21216	942.03925	1218.0459	-701.50153	800.79993	1226.4718	-752.7439	824.87415	1205.69458	-744.96399	742.28418	1187.79358	-589.29877	1385.89563	1634.60315	-679.38232	1207.04907	1744.84033	-684.97687	1081.75305	1768.08374	-604.62659	988.69714	1800.85217	-476.15347	933.99133	1780.95166	-511.18546	911.12671	1819.87073	-434.54834	873.42236	1825.1449	-549.85944	912.69971	1415.98303	-568.30518	907.04718	1630.55212	-739.10468	918.68677	1447.26392	-748.9079	925.44067	1590.79846	-488.68503	600.90869	1351.53442	-451.2644	474.19458	1375.75842	-470.39359	284.073	1369.78931	-472.03989	67.1866	1430.23486	-511.81314	36.76984	1486.70313	-328.60019	39.88346	1417.63306	-675.72278	583.88434	1702.1272	-705.45758	425.40674	1697.21973	-855.74072	327.87521	1697.54993	-1000.87671	177.42877	1661.06323	-1048.79785	186.13214	1603.41199	-959.84656	38.03983	1665.96216	-498.4155	1679.84839	1500.40955	1973.16101	1023.66962	-3101.94116	2012.51099	1022.03876	-3140.6709	NaN	NaN	NaN
24	0.23	-504.94678	1636.14966	1411.14099	-474.28394	1647.35034	1519.83875	-619.60931	1598.87622	1439.76379	-589.97498	1609.33142	1555.51807	-659.25897	1409.99524	1480.8042	-713.53601	1118.53955	1506.27356	-517.49884	1335.87756	1484.91357	-486.08948	1178.45764	1490.68127	-724.42334	1227.60815	1569.93823	-576.0636	1363.98169	1323.71216	-639.25269	1185.64929	1244.60071	-688.76868	1049.02368	1248.39124	-701.47467	940.36273	1217.51514	-682.84888	799.40234	1226.62927	-734.32623	822.71558	1205.68665	-725.25378	740.15424	1188.04968	-576.62909	1386.6427	1632.7395	-667.95892	1208.28064	1742.73242	-673.9505	1083.13684	1765.72876	-595.20026	988.45227	1798.3136	-467.94638	930.99701	1778.41089	-503.44656	908.70831	1817.30786	-427.64014	869.46851	1822.52344	-537.75256	913.98285	1414.38477	-555.36322	906.98059	1628.8092	-726.88568	919.58801	1447.69507	-735.84174	925.08295	1591.22205	-479.17667	600.25958	1350.23926	-443.21146	472.34076	1374.10071	-465.94159	282.38632	1369.67542	-470.72736	66.99215	1430.44666	-511.35907	37.01331	1486.78027	-327.3288	38.64882	1418.07043	-655.89111	581.86053	1702.50012	-682.69446	423.48209	1697.69385	-834.9696	329.42084	1697.82263	-984.37628	184.85677	1660.04285	-1032.10913	196.95166	1602.68945	-951.05493	43.78188	1665.88232	-486.57565	1680.38684	1497.703	1973.1366	1023.47272	-3101.85547	2012.44519	1022.03943	-3140.78687	NaN	NaN	NaN
25	0.24	-492.75211	1636.62915	1408.63489	-462.23361	1648.28894	1517.34546	-607.36566	1599.1123	1437.29333	-577.8609	1610.04175	1552.97668	-647.15991	1410.31812	1479.14636	-701.07843	1119.21179	1505.45532	-504.90872	1336.37793	1483.54089	-473.58673	1178.94849	1489.74121	-711.97437	1228.51367	1568.79907	-563.17523	1364.01575	1322.21704	-625.27026	1185.16919	1243.53748	-673.401	1047.7395	1247.52551	-684.33032	938.67065	1217.09473	-663.33472	798.10242	1226.90454	-715.05524	820.40802	1205.50037	-704.4389	738.05823	1188.32019	-564.06268	1387.51721	1631.10168	-656.42792	1209.53442	1740.94214	-663.10828	1084.44617	1763.40369	-586.151	988.0293	1795.92468	-460.25345	927.54767	1775.8949	-496.25644	906.0647	1814.89478	-421.36658	865.14893	1820.04443	-525.77588	915.33966	1412.6416	-542.86731	907.01508	1627.12427	-714.93695	920.44769	1448.0957	-722.93054	924.24396	1591.63867	-470.29373	599.00256	1349.02063	-436.13596	470.06375	1372.27979	-462.77859	281.15137	1369.61914	-470.45319	67.11943	1430.64478	-510.9975	37.16281	1486.91687	-326.56363	37.80531	1417.5022	-636.07678	579.95734	1702.61877	-659.20557	421.51312	1697.74194	-813.02972	330.91544	1698.03125	-966.80658	192.9411	1658.39172	-1013.67651	207.64545	1601.00244	-940.23914	50.71955	1666.68909	-474.92334	1681.02954	1495.00818	1973.11743	1023.47937	-3101.8606	2012.50891	1022.12207	-3140.76978	NaN	NaN	NaN
26	0.25	-480.47266	1637.11523	1406.18091	-450.10736	1649.22485	1514.92432	-594.86206	1599.49268	1434.93848	-565.68011	1610.95203	1550.60132	-634.99084	1410.93628	1477.60901	-688.70959	1120.13098	1504.59583	-492.46017	1336.94177	1482.25549	-461.27005	1179.46228	1488.9165	-699.71704	1229.57361	1567.76599	-550.40826	1364.0791	1320.79053	-611.02417	1184.81689	1242.54285	-657.47089	1046.58118	1246.57996	-666.68793	936.94635	1216.67847	-643.01978	796.91125	1227.12549	-695.21161	818.10138	1205.70471	-682.65509	736.04492	1188.64709	-551.7392	1388.47461	1629.59473	-644.82648	1210.89893	1739.49634	-652.40021	1085.69385	1761.09644	-577.49707	987.45679	1793.63098	-453.07413	923.7851	1773.45374	-489.51703	903.22998	1812.61255	-415.74268	860.33203	1817.47083	-514.45557	916.4317	1410.96643	-530.76062	907.23358	1625.53955	-703.25946	921.35913	1448.47144	-710.8905	924.01544	1592.35742	-462.07205	597.70496	1347.91016	-429.71408	468.06635	1370.42053	-460.12613	280.52133	1369.34839	-469.94577	67.00064	1430.72046	-510.68118	37.30259	1486.95972	-325.74936	36.75892	1416.43994	-616.09137	578.11609	1702.25659	-635.08716	419.7475	1697.40491	-790.41144	332.59717	1698.09314	-947.6778	200.74261	1656.31152	-994.05164	217.11513	1598.30212	-927.11072	57.56593	1667.00903	-463.09473	1681.83228	1492.30322	1973.18286	1023.61292	-3102.09985	2012.50024	1022.09906	-3140.89502	NaN	NaN	NaN
